<svg width="622" height="138" viewBox="0 0 622 138" fill="none" xmlns="http://www.w3.org/2000/svg">
<path d="M177.518 86.2543H174.195C174.067 85.544 173.829 84.919 173.481 84.3793C173.133 83.8395 172.707 83.3814 172.202 83.005C171.698 82.6286 171.134 82.3445 170.509 82.1527C169.891 81.9609 169.234 81.8651 168.538 81.8651C167.281 81.8651 166.155 82.1811 165.161 82.8132C164.173 83.4453 163.392 84.3722 162.817 85.5938C162.249 86.8153 161.964 88.3068 161.964 90.0682C161.964 91.8438 162.249 93.3423 162.817 94.5639C163.392 95.7855 164.177 96.7088 165.171 97.3338C166.165 97.9588 167.284 98.2713 168.527 98.2713C169.216 98.2713 169.869 98.179 170.487 97.9943C171.112 97.8026 171.677 97.522 172.181 97.1527C172.685 96.7834 173.112 96.3324 173.46 95.7997C173.815 95.2599 174.06 94.6421 174.195 93.946L177.518 93.9567C177.341 95.0291 176.996 96.0163 176.485 96.9183C175.981 97.8132 175.331 98.5874 174.536 99.2408C173.747 99.8871 172.845 100.388 171.83 100.743C170.814 101.098 169.706 101.276 168.506 101.276C166.616 101.276 164.933 100.828 163.456 99.9332C161.979 99.0313 160.814 97.7422 159.962 96.0661C159.116 94.3899 158.694 92.3906 158.694 90.0682C158.694 87.7386 159.12 85.7394 159.972 84.0703C160.825 82.3942 161.989 81.1087 163.467 80.2138C164.944 79.3118 166.624 78.8608 168.506 78.8608C169.663 78.8608 170.743 79.0277 171.744 79.3615C172.753 79.6882 173.658 80.1712 174.461 80.8104C175.263 81.4425 175.928 82.2166 176.453 83.1328C176.979 84.0419 177.334 85.0824 177.518 86.2543ZM185.964 101.339C184.927 101.339 183.99 101.148 183.151 100.764C182.313 100.374 181.649 99.809 181.159 99.0703C180.676 98.3317 180.435 97.4261 180.435 96.3537C180.435 95.4304 180.612 94.6705 180.968 94.0739C181.323 93.4773 181.802 93.005 182.406 92.657C183.009 92.309 183.684 92.0462 184.43 91.8686C185.176 91.6911 185.936 91.5561 186.71 91.4638C187.69 91.3501 188.485 91.2578 189.096 91.1868C189.707 91.1087 190.151 90.9844 190.428 90.8139C190.705 90.6435 190.843 90.3665 190.843 89.983V89.9084C190.843 88.978 190.58 88.2571 190.055 87.7457C189.536 87.2344 188.762 86.9787 187.732 86.9787C186.66 86.9787 185.815 87.2166 185.197 87.6925C184.586 88.1612 184.164 88.6832 183.929 89.2585L180.936 88.5767C181.291 87.5824 181.809 86.7798 182.491 86.169C183.18 85.5511 183.972 85.1037 184.867 84.8267C185.762 84.5426 186.703 84.4006 187.69 84.4006C188.343 84.4006 189.036 84.4787 189.767 84.635C190.506 84.7841 191.195 85.0611 191.834 85.4659C192.48 85.8707 193.009 86.4496 193.421 87.2024C193.833 87.9482 194.039 88.9176 194.039 90.1108V100.977H190.928V98.7401H190.801C190.595 99.152 190.286 99.5568 189.874 99.9546C189.462 100.352 188.933 100.683 188.286 100.945C187.64 101.208 186.866 101.339 185.964 101.339ZM186.656 98.7827C187.537 98.7827 188.29 98.6087 188.915 98.2607C189.547 97.9126 190.026 97.4581 190.353 96.897C190.687 96.3288 190.854 95.7216 190.854 95.0753V92.9659C190.74 93.0796 190.52 93.1861 190.193 93.2855C189.874 93.3778 189.508 93.4595 189.096 93.5305C188.684 93.5945 188.283 93.6548 187.892 93.7117C187.502 93.7614 187.175 93.804 186.912 93.8395C186.294 93.9176 185.73 94.049 185.218 94.2337C184.714 94.4183 184.309 94.6847 184.004 95.0327C183.705 95.3736 183.556 95.8281 183.556 96.3963C183.556 97.1847 183.847 97.7813 184.43 98.1861C185.012 98.5838 185.754 98.7827 186.656 98.7827ZM208.648 94.1911V84.6136H211.844V100.977H208.712V98.1435H208.541C208.165 99.0171 207.561 99.745 206.73 100.327C205.906 100.903 204.88 101.19 203.651 101.19C202.6 101.19 201.67 100.96 200.86 100.498C200.058 100.029 199.425 99.3367 198.964 98.4205C198.509 97.5043 198.282 96.3715 198.282 95.022V84.6136H201.467V94.6385C201.467 95.7536 201.776 96.6413 202.394 97.3019C203.012 97.9624 203.815 98.2926 204.802 98.2926C205.398 98.2926 205.991 98.1435 206.581 97.8452C207.178 97.5469 207.671 97.0959 208.062 96.4922C208.46 95.8885 208.655 95.1215 208.648 94.1911ZM228.386 88.6087L225.499 89.12C225.378 88.7507 225.186 88.3992 224.923 88.0653C224.668 87.7315 224.32 87.4581 223.879 87.245C223.439 87.032 222.889 86.9254 222.228 86.9254C221.326 86.9254 220.573 87.1278 219.97 87.5327C219.366 87.9304 219.064 88.4453 219.064 89.0774C219.064 89.6243 219.267 90.0646 219.671 90.3984C220.076 90.7323 220.73 91.0057 221.632 91.2188L224.231 91.8153C225.737 92.1634 226.859 92.6996 227.597 93.424C228.336 94.1484 228.705 95.0895 228.705 96.2472C228.705 97.2273 228.421 98.1009 227.853 98.8679C227.292 99.6278 226.507 100.224 225.499 100.658C224.497 101.091 223.336 101.308 222.015 101.308C220.183 101.308 218.688 100.917 217.53 100.136C216.372 99.3473 215.662 98.2287 215.399 96.7798L218.478 96.3111C218.67 97.1136 219.064 97.7209 219.661 98.1328C220.257 98.5376 221.035 98.7401 221.994 98.7401C223.038 98.7401 223.872 98.5234 224.497 98.0902C225.122 97.6499 225.435 97.1136 225.435 96.4815C225.435 95.9702 225.243 95.5405 224.86 95.1925C224.483 94.8445 223.904 94.5817 223.123 94.4041L220.353 93.7969C218.826 93.4489 217.697 92.8949 216.965 92.135C216.241 91.375 215.879 90.4126 215.879 89.2479C215.879 88.282 216.149 87.4368 216.688 86.7124C217.228 85.9879 217.974 85.4233 218.926 85.0185C219.877 84.6065 220.968 84.4006 222.196 84.4006C223.965 84.4006 225.357 84.7841 226.372 85.5511C227.388 86.3111 228.059 87.3303 228.386 88.6087ZM236.97 101.339C235.933 101.339 234.995 101.148 234.157 100.764C233.319 100.374 232.655 99.809 232.165 99.0703C231.682 98.3317 231.441 97.4261 231.441 96.3537C231.441 95.4304 231.618 94.6705 231.973 94.0739C232.328 93.4773 232.808 93.005 233.412 92.657C234.015 92.309 234.69 92.0462 235.436 91.8686C236.181 91.6911 236.941 91.5561 237.716 91.4638C238.696 91.3501 239.491 91.2578 240.102 91.1868C240.713 91.1087 241.157 90.9844 241.434 90.8139C241.711 90.6435 241.849 90.3665 241.849 89.983V89.9084C241.849 88.978 241.586 88.2571 241.061 87.7457C240.542 87.2344 239.768 86.9787 238.738 86.9787C237.666 86.9787 236.821 87.2166 236.203 87.6925C235.592 88.1612 235.169 88.6832 234.935 89.2585L231.941 88.5767C232.297 87.5824 232.815 86.7798 233.497 86.169C234.186 85.5511 234.978 85.1037 235.873 84.8267C236.767 84.5426 237.708 84.4006 238.696 84.4006C239.349 84.4006 240.042 84.4787 240.773 84.635C241.512 84.7841 242.201 85.0611 242.84 85.4659C243.486 85.8707 244.015 86.4496 244.427 87.2024C244.839 87.9482 245.045 88.9176 245.045 90.1108V100.977H241.934V98.7401H241.806C241.6 99.152 241.292 99.5568 240.88 99.9546C240.468 100.352 239.939 100.683 239.292 100.945C238.646 101.208 237.872 101.339 236.97 101.339ZM237.662 98.7827C238.543 98.7827 239.296 98.6087 239.921 98.2607C240.553 97.9126 241.032 97.4581 241.359 96.897C241.693 96.3288 241.86 95.7216 241.86 95.0753V92.9659C241.746 93.0796 241.526 93.1861 241.199 93.2855C240.88 93.3778 240.514 93.4595 240.102 93.5305C239.69 93.5945 239.289 93.6548 238.898 93.7117C238.507 93.7614 238.181 93.804 237.918 93.8395C237.3 93.9176 236.735 94.049 236.224 94.2337C235.72 94.4183 235.315 94.6847 235.01 95.0327C234.711 95.3736 234.562 95.8281 234.562 96.3963C234.562 97.1847 234.853 97.7813 235.436 98.1861C236.018 98.5838 236.76 98.7827 237.662 98.7827ZM252.473 79.1591V100.977H249.288V79.1591H252.473ZM256.759 100.977V84.6136H259.944V100.977H256.759ZM258.367 82.0888C257.813 82.0888 257.337 81.9041 256.94 81.5348C256.549 81.1584 256.354 80.7109 256.354 80.1925C256.354 79.6669 256.549 79.2195 256.94 78.8501C257.337 78.4737 257.813 78.2855 258.367 78.2855C258.921 78.2855 259.393 78.4737 259.784 78.8501C260.182 79.2195 260.381 79.6669 260.381 80.1925C260.381 80.7109 260.182 81.1584 259.784 81.5348C259.393 81.9041 258.921 82.0888 258.367 82.0888ZM271.868 84.6136V87.1705H262.93V84.6136H271.868ZM265.327 80.6932H268.512V96.1726C268.512 96.7905 268.604 97.2557 268.789 97.5682C268.974 97.8736 269.211 98.0831 269.503 98.1967C269.801 98.3033 270.124 98.3565 270.472 98.3565C270.728 98.3565 270.952 98.3388 271.143 98.3033C271.335 98.2678 271.484 98.2394 271.591 98.218L272.166 100.849C271.981 100.92 271.719 100.991 271.378 101.063C271.037 101.141 270.611 101.183 270.099 101.19C269.261 101.205 268.48 101.055 267.756 100.743C267.031 100.43 266.445 99.9475 265.998 99.294C265.55 98.6406 265.327 97.8203 265.327 96.8331V80.6932ZM277.405 107.114C276.929 107.114 276.496 107.075 276.105 106.996C275.714 106.925 275.423 106.847 275.232 106.762L275.999 104.152C276.581 104.308 277.099 104.376 277.554 104.354C278.009 104.333 278.41 104.163 278.758 103.843C279.113 103.523 279.425 103.001 279.695 102.277L280.089 101.19L274.102 84.6136H277.511L281.656 97.3125H281.826L285.97 84.6136H289.39L282.646 103.161C282.334 104.014 281.936 104.734 281.453 105.324C280.97 105.92 280.395 106.368 279.727 106.666C279.06 106.964 278.286 107.114 277.405 107.114ZM295.931 79.1591V100.977H292.639V79.1591H295.931ZM308.747 93.9034H311.986L314.266 96.8757L315.342 98.1967L318.974 102.938H315.608L313.179 99.7734L312.348 98.6229L308.747 93.9034ZM319.678 90.0682C319.678 92.3977 319.251 94.4006 318.399 96.0767C317.547 97.7457 316.379 99.0313 314.894 99.9332C313.417 100.828 311.737 101.276 309.855 101.276C307.966 101.276 306.279 100.828 304.795 99.9332C303.317 99.0313 302.153 97.7422 301.3 96.0661C300.448 94.3899 300.022 92.3906 300.022 90.0682C300.022 87.7386 300.448 85.7394 301.3 84.0703C302.153 82.3942 303.317 81.1087 304.795 80.2138C306.279 79.3118 307.966 78.8608 309.855 78.8608C311.737 78.8608 313.417 79.3118 314.894 80.2138C316.379 81.1087 317.547 82.3942 318.399 84.0703C319.251 85.7394 319.678 87.7386 319.678 90.0682ZM316.418 90.0682C316.418 88.2926 316.13 86.7976 315.555 85.5831C314.987 84.3615 314.205 83.4382 313.211 82.8132C312.224 82.1811 311.105 81.8651 309.855 81.8651C308.598 81.8651 307.476 82.1811 306.489 82.8132C305.501 83.4382 304.72 84.3615 304.145 85.5831C303.577 86.7976 303.293 88.2926 303.293 90.0682C303.293 91.8438 303.577 93.3423 304.145 94.5639C304.72 95.7784 305.501 96.7017 306.489 97.3338C307.476 97.9588 308.598 98.2713 309.855 98.2713C311.105 98.2713 312.224 97.9588 313.211 97.3338C314.205 96.7017 314.987 95.7784 315.555 94.5639C316.13 93.3423 316.418 91.8438 316.418 90.0682Z" fill="#5E5C5C"/>
<path d="M210.182 0.79546V58.9773H203.364L171.659 13.2955H171.091V58.9773H164.045V0.79546H170.864L202.682 46.5909H203.25V0.79546H210.182ZM241.666 59.8864C237.462 59.8864 233.835 58.9583 230.786 57.1023C227.755 55.2273 225.416 52.6136 223.768 49.2614C222.14 45.8902 221.325 41.9697 221.325 37.5C221.325 33.0303 222.14 29.0909 223.768 25.6818C225.416 22.2538 227.708 19.5833 230.643 17.6705C233.598 15.7386 237.045 14.7727 240.984 14.7727C243.257 14.7727 245.501 15.1515 247.717 15.9091C249.933 16.6667 251.95 17.8977 253.768 19.6023C255.587 21.2879 257.036 23.5227 258.115 26.3068C259.195 29.0909 259.734 32.5189 259.734 36.5909V39.4318H226.098V33.6364H252.916C252.916 31.1742 252.424 28.9773 251.439 27.0455C250.473 25.1136 249.09 23.589 247.291 22.4716C245.511 21.3542 243.409 20.7955 240.984 20.7955C238.314 20.7955 236.003 21.4583 234.053 22.7841C232.121 24.0909 230.634 25.7955 229.592 27.8977C228.551 30 228.03 32.2538 228.03 34.6591V38.5227C228.03 41.8182 228.598 44.6117 229.734 46.9034C230.89 49.1761 232.49 50.9091 234.536 52.1023C236.581 53.2765 238.958 53.8636 241.666 53.8636C243.428 53.8636 245.018 53.6174 246.439 53.125C247.878 52.6136 249.119 51.8561 250.161 50.8523C251.202 49.8296 252.007 48.5606 252.575 47.0455L259.053 48.8636C258.371 51.0606 257.225 52.9924 255.615 54.6591C254.005 56.3068 252.017 57.5947 249.649 58.5227C247.282 59.4318 244.621 59.8864 241.666 59.8864ZM297.433 41.1364V15.3409H304.138V58.9773H297.433V51.5909H296.979C295.956 53.8068 294.365 55.6913 292.206 57.2443C290.047 58.7784 287.32 59.5455 284.024 59.5455C281.297 59.5455 278.873 58.9489 276.751 57.7557C274.63 56.5436 272.964 54.7254 271.751 52.3011C270.539 49.858 269.933 46.7803 269.933 43.0682V15.3409H276.638V42.6136C276.638 45.7955 277.528 48.3333 279.308 50.2273C281.107 52.1212 283.399 53.0682 286.183 53.0682C287.85 53.0682 289.545 52.6421 291.268 51.7898C293.011 50.9375 294.469 49.6307 295.643 47.8693C296.837 46.108 297.433 43.8636 297.433 41.1364ZM316.418 58.9773V15.3409H322.895V21.9318H323.349C324.145 19.7727 325.584 18.0208 327.668 16.6761C329.751 15.3314 332.099 14.6591 334.713 14.6591C335.205 14.6591 335.821 14.6686 336.56 14.6875C337.298 14.7064 337.857 14.7349 338.236 14.7727V21.5909C338.009 21.5341 337.488 21.4489 336.673 21.3352C335.878 21.2027 335.035 21.1364 334.145 21.1364C332.024 21.1364 330.13 21.5814 328.463 22.4716C326.815 23.3428 325.509 24.5549 324.543 26.108C323.596 27.6421 323.122 29.3939 323.122 31.3636V58.9773H316.418ZM359.024 60C356.259 60 353.75 59.4792 351.496 58.4375C349.242 57.3769 347.452 55.8523 346.126 53.8636C344.801 51.8561 344.138 49.4318 344.138 46.5909C344.138 44.0909 344.63 42.0644 345.615 40.5114C346.6 38.9394 347.916 37.7083 349.564 36.8182C351.212 35.928 353.03 35.2652 355.018 34.8296C357.026 34.375 359.043 34.0152 361.07 33.75C363.721 33.4091 365.871 33.1534 367.518 32.983C369.185 32.7936 370.397 32.4811 371.155 32.0455C371.931 31.6099 372.32 30.8523 372.32 29.7727V29.5455C372.32 26.7424 371.553 24.5644 370.018 23.0114C368.503 21.4583 366.202 20.6818 363.115 20.6818C359.914 20.6818 357.405 21.3826 355.587 22.7841C353.768 24.1856 352.49 25.6818 351.751 27.2727L345.388 25C346.524 22.3485 348.039 20.2841 349.933 18.8068C351.846 17.3106 353.929 16.2689 356.183 15.6818C358.456 15.0758 360.691 14.7727 362.888 14.7727C364.289 14.7727 365.899 14.9432 367.717 15.2841C369.554 15.6061 371.325 16.2784 373.03 17.3011C374.753 18.3239 376.183 19.8674 377.32 21.9318C378.456 23.9962 379.024 26.7614 379.024 30.2273V58.9773H372.32V53.0682H371.979C371.524 54.0152 370.767 55.0284 369.706 56.108C368.645 57.1875 367.234 58.1061 365.473 58.8636C363.712 59.6212 361.562 60 359.024 60ZM360.047 53.9773C362.698 53.9773 364.933 53.4564 366.751 52.4148C368.589 51.3731 369.971 50.0284 370.899 48.3807C371.846 46.733 372.32 45 372.32 43.1818V37.0455C372.036 37.3864 371.411 37.6989 370.445 37.983C369.498 38.2481 368.399 38.4849 367.149 38.6932C365.918 38.8826 364.715 39.053 363.541 39.2046C362.386 39.3371 361.448 39.4508 360.729 39.5455C358.986 39.7727 357.357 40.1421 355.842 40.6534C354.346 41.1458 353.134 41.8939 352.206 42.8977C351.297 43.8826 350.842 45.2273 350.842 46.9318C350.842 49.2614 351.704 51.0227 353.428 52.2159C355.17 53.3902 357.376 53.9773 360.047 53.9773ZM397.966 0.79546V58.9773H391.261V0.79546H397.966ZM448.825 19.375C448.352 17.8409 447.698 16.4678 446.865 15.2557C446.051 14.0246 445.066 12.9735 443.911 12.1023C442.774 11.2311 441.467 10.5777 439.99 10.142C438.513 9.68751 436.903 9.46023 435.161 9.46023C432.036 9.46023 429.251 10.2462 426.808 11.8182C424.365 13.3902 422.443 15.7008 421.041 18.75C419.659 21.7803 418.967 25.4735 418.967 29.8296C418.967 34.2235 419.659 37.9451 421.041 40.9943C422.424 44.0436 424.346 46.3636 426.808 47.9546C429.27 49.5265 432.13 50.3125 435.388 50.3125C438.342 50.3125 440.899 49.7443 443.058 48.608C445.236 47.4716 446.912 45.8617 448.087 43.7784C449.261 41.6761 449.848 39.214 449.848 36.3921L452.234 36.7614H436.439V28.5227H460.047V35.5114C460.047 40.4924 458.986 44.8011 456.865 48.4375C454.744 52.0739 451.827 54.8769 448.115 56.8466C444.403 58.7974 440.142 59.7727 435.331 59.7727C429.971 59.7727 425.265 58.5701 421.212 56.1648C417.178 53.7405 414.024 50.303 411.751 45.8523C409.498 41.3826 408.371 36.0796 408.371 29.9432C408.371 25.2462 409.034 21.0511 410.359 17.358C411.704 13.6648 413.579 10.5303 415.984 7.95455C418.39 5.35985 421.212 3.39016 424.45 2.04546C427.689 0.681823 431.212 4.76837e-06 435.018 4.76837e-06C438.238 4.76837e-06 441.24 0.47349 444.024 1.42046C446.808 2.34849 449.28 3.67425 451.439 5.39773C453.617 7.12122 455.407 9.16667 456.808 11.5341C458.21 13.9015 459.128 16.5152 459.564 19.375H448.825ZM470.239 58.9773V0.79546H492.057C496.527 0.79546 500.277 1.57197 503.307 3.125C506.356 4.67803 508.657 6.85606 510.21 9.65909C511.782 12.4432 512.568 15.6913 512.568 19.4034C512.568 23.1345 511.773 26.3731 510.182 29.1193C508.61 31.8466 506.29 33.9583 503.222 35.4546C500.153 36.9318 496.384 37.6705 491.915 37.6705H476.375V28.9205H490.494C493.108 28.9205 495.248 28.5606 496.915 27.8409C498.581 27.1023 499.813 26.0322 500.608 24.6307C501.422 23.2102 501.83 21.4678 501.83 19.4034C501.83 17.339 501.422 15.5777 500.608 14.1193C499.794 12.6421 498.553 11.5246 496.886 10.767C495.22 9.99054 493.07 9.60228 490.438 9.60228H480.778V58.9773H470.239ZM500.295 32.6136L514.699 58.9773H502.938L488.79 32.6136H500.295ZM532.81 0.79546V58.9773H522.27V0.79546H532.81ZM563.939 58.9773H544.223V0.79546H564.337C570.113 0.79546 575.075 1.96023 579.223 4.28978C583.39 6.60038 586.59 9.92425 588.825 14.2614C591.06 18.5985 592.178 23.7879 592.178 29.8296C592.178 35.8902 591.051 41.0985 588.797 45.4546C586.562 49.8106 583.333 53.1534 579.109 55.483C574.905 57.8125 569.848 58.9773 563.939 58.9773ZM554.763 49.858H563.428C567.481 49.858 570.861 49.1193 573.57 47.6421C576.278 46.1458 578.314 43.9205 579.678 40.9659C581.041 37.9924 581.723 34.2803 581.723 29.8296C581.723 25.3788 581.041 21.6856 579.678 18.75C578.314 15.7955 576.297 13.589 573.626 12.1307C570.975 10.6534 567.679 9.91478 563.74 9.91478H554.763V49.858Z" fill="black"/>
<path d="M158.598 132.977V118.432H163.783C164.914 118.432 165.852 118.638 166.595 119.05C167.339 119.462 167.895 120.025 168.264 120.74C168.634 121.45 168.818 122.25 168.818 123.141C168.818 124.036 168.631 124.84 168.257 125.555C167.888 126.266 167.329 126.829 166.581 127.246C165.838 127.658 164.902 127.864 163.776 127.864H160.21V126.003H163.577C164.292 126.003 164.872 125.88 165.317 125.634C165.762 125.383 166.089 125.042 166.297 124.611C166.505 124.18 166.609 123.69 166.609 123.141C166.609 122.591 166.505 122.104 166.297 121.678C166.089 121.251 165.759 120.918 165.31 120.676C164.865 120.435 164.277 120.314 163.548 120.314H160.793V132.977H158.598ZM175.679 133.197C174.656 133.197 173.764 132.963 173.001 132.494C172.239 132.026 171.647 131.37 171.226 130.527C170.804 129.684 170.594 128.699 170.594 127.572C170.594 126.441 170.804 125.451 171.226 124.604C171.647 123.756 172.239 123.098 173.001 122.629C173.764 122.161 174.656 121.926 175.679 121.926C176.702 121.926 177.594 122.161 178.357 122.629C179.119 123.098 179.711 123.756 180.132 124.604C180.554 125.451 180.764 126.441 180.764 127.572C180.764 128.699 180.554 129.684 180.132 130.527C179.711 131.37 179.119 132.026 178.357 132.494C177.594 132.963 176.702 133.197 175.679 133.197ZM175.686 131.415C176.349 131.415 176.898 131.24 177.334 130.889C177.769 130.539 178.091 130.072 178.3 129.49C178.513 128.908 178.619 128.266 178.619 127.565C178.619 126.869 178.513 126.23 178.3 125.648C178.091 125.061 177.769 124.589 177.334 124.234C176.898 123.879 176.349 123.702 175.686 123.702C175.018 123.702 174.464 123.879 174.024 124.234C173.589 124.589 173.264 125.061 173.051 125.648C172.843 126.23 172.739 126.869 172.739 127.565C172.739 128.266 172.843 128.908 173.051 129.49C173.264 130.072 173.589 130.539 174.024 130.889C174.464 131.24 175.018 131.415 175.686 131.415ZM185.168 132.977L181.957 122.068H184.152L186.29 130.08H186.396L188.541 122.068H190.736L192.866 130.044H192.973L195.097 122.068H197.291L194.088 132.977H191.922L189.706 125.101H189.543L187.327 132.977H185.168ZM203.676 133.197C202.601 133.197 201.676 132.968 200.899 132.509C200.127 132.045 199.531 131.393 199.109 130.555C198.693 129.713 198.484 128.725 198.484 127.594C198.484 126.476 198.693 125.491 199.109 124.639C199.531 123.787 200.118 123.122 200.871 122.643C201.628 122.165 202.514 121.926 203.527 121.926C204.143 121.926 204.739 122.028 205.317 122.232C205.894 122.435 206.413 122.755 206.872 123.19C207.331 123.626 207.694 124.192 207.959 124.888C208.224 125.579 208.357 126.42 208.357 127.409V128.162H199.685V126.571H206.276C206.276 126.012 206.162 125.518 205.935 125.087C205.707 124.651 205.388 124.308 204.976 124.057C204.569 123.806 204.09 123.68 203.541 123.68C202.945 123.68 202.424 123.827 201.979 124.121C201.538 124.41 201.197 124.788 200.956 125.257C200.719 125.721 200.601 126.225 200.601 126.77V128.013C200.601 128.742 200.729 129.362 200.984 129.874C201.245 130.385 201.607 130.776 202.071 131.045C202.535 131.311 203.077 131.443 203.697 131.443C204.1 131.443 204.467 131.386 204.798 131.273C205.13 131.154 205.416 130.979 205.658 130.747C205.899 130.515 206.084 130.229 206.212 129.888L208.222 130.25C208.061 130.842 207.772 131.36 207.355 131.805C206.943 132.246 206.425 132.589 205.8 132.835C205.179 133.077 204.472 133.197 203.676 133.197ZM210.713 132.977V122.068H212.765V123.801H212.879C213.078 123.214 213.428 122.752 213.93 122.416C214.437 122.075 215.01 121.905 215.649 121.905C215.781 121.905 215.938 121.91 216.118 121.919C216.302 121.929 216.447 121.94 216.551 121.955V123.986C216.466 123.962 216.314 123.936 216.096 123.908C215.878 123.875 215.661 123.858 215.443 123.858C214.941 123.858 214.493 123.964 214.1 124.178C213.712 124.386 213.404 124.677 213.177 125.051C212.95 125.42 212.836 125.842 212.836 126.315V132.977H210.713ZM222.7 133.197C221.625 133.197 220.699 132.968 219.923 132.509C219.151 132.045 218.554 131.393 218.133 130.555C217.716 129.713 217.508 128.725 217.508 127.594C217.508 126.476 217.716 125.491 218.133 124.639C218.554 123.787 219.141 123.122 219.894 122.643C220.652 122.165 221.537 121.926 222.55 121.926C223.166 121.926 223.763 122.028 224.34 122.232C224.918 122.435 225.436 122.755 225.896 123.19C226.355 123.626 226.717 124.192 226.982 124.888C227.247 125.579 227.38 126.42 227.38 127.409V128.162H218.708V126.571H225.299C225.299 126.012 225.185 125.518 224.958 125.087C224.731 124.651 224.411 124.308 223.999 124.057C223.592 123.806 223.114 123.68 222.565 123.68C221.968 123.68 221.447 123.827 221.002 124.121C220.562 124.41 220.221 124.788 219.979 125.257C219.743 125.721 219.624 126.225 219.624 126.77V128.013C219.624 128.742 219.752 129.362 220.008 129.874C220.268 130.385 220.63 130.776 221.094 131.045C221.558 131.311 222.101 131.443 222.721 131.443C223.123 131.443 223.49 131.386 223.822 131.273C224.153 131.154 224.44 130.979 224.681 130.747C224.923 130.515 225.107 130.229 225.235 129.888L227.245 130.25C227.084 130.842 226.795 131.36 226.379 131.805C225.967 132.246 225.448 132.589 224.823 132.835C224.203 133.077 223.495 133.197 222.7 133.197ZM233.82 133.19C232.939 133.19 232.153 132.965 231.462 132.516C230.775 132.061 230.236 131.415 229.843 130.577C229.454 129.734 229.26 128.723 229.26 127.544C229.26 126.365 229.457 125.357 229.85 124.518C230.248 123.68 230.792 123.039 231.483 122.594C232.175 122.149 232.958 121.926 233.834 121.926C234.511 121.926 235.056 122.04 235.468 122.267C235.884 122.49 236.206 122.75 236.434 123.048C236.666 123.347 236.846 123.609 236.973 123.837H237.101V118.432H239.225V132.977H237.151V131.28H236.973C236.846 131.512 236.661 131.777 236.419 132.075C236.183 132.374 235.856 132.634 235.439 132.857C235.023 133.079 234.483 133.19 233.82 133.19ZM234.289 131.379C234.9 131.379 235.416 131.218 235.837 130.896C236.263 130.57 236.585 130.117 236.803 129.54C237.025 128.962 237.137 128.29 237.137 127.523C237.137 126.765 237.028 126.102 236.81 125.534C236.592 124.966 236.273 124.523 235.851 124.206C235.43 123.889 234.909 123.73 234.289 123.73C233.65 123.73 233.117 123.896 232.691 124.227C232.265 124.559 231.943 125.011 231.725 125.584C231.512 126.157 231.405 126.803 231.405 127.523C231.405 128.252 231.514 128.908 231.732 129.49C231.95 130.072 232.272 130.534 232.698 130.875C233.129 131.211 233.659 131.379 234.289 131.379ZM247.719 132.977V118.432H249.843V123.837H249.971C250.094 123.609 250.271 123.347 250.503 123.048C250.735 122.75 251.057 122.49 251.469 122.267C251.881 122.04 252.426 121.926 253.103 121.926C253.983 121.926 254.769 122.149 255.461 122.594C256.152 123.039 256.694 123.68 257.087 124.518C257.485 125.357 257.684 126.365 257.684 127.544C257.684 128.723 257.487 129.734 257.094 130.577C256.701 131.415 256.161 132.061 255.475 132.516C254.788 132.965 254.005 133.19 253.124 133.19C252.461 133.19 251.919 133.079 251.498 132.857C251.081 132.634 250.754 132.374 250.517 132.075C250.281 131.777 250.098 131.512 249.971 131.28H249.793V132.977H247.719ZM249.8 127.523C249.8 128.29 249.911 128.962 250.134 129.54C250.356 130.117 250.678 130.57 251.1 130.896C251.521 131.218 252.037 131.379 252.648 131.379C253.283 131.379 253.813 131.211 254.239 130.875C254.665 130.534 254.987 130.072 255.205 129.49C255.427 128.908 255.539 128.252 255.539 127.523C255.539 126.803 255.43 126.157 255.212 125.584C254.999 125.011 254.677 124.559 254.246 124.227C253.82 123.896 253.287 123.73 252.648 123.73C252.033 123.73 251.512 123.889 251.086 124.206C250.664 124.523 250.345 124.966 250.127 125.534C249.909 126.102 249.8 126.765 249.8 127.523ZM261.039 137.068C260.722 137.068 260.433 137.042 260.173 136.99C259.913 136.943 259.718 136.891 259.591 136.834L260.102 135.094C260.49 135.198 260.836 135.243 261.139 135.229C261.442 135.214 261.709 135.101 261.941 134.888C262.178 134.675 262.386 134.327 262.566 133.844L262.829 133.119L258.838 122.068H261.11L263.873 130.534H263.987L266.75 122.068H269.029L264.534 134.433C264.325 135.001 264.06 135.482 263.738 135.875C263.416 136.273 263.033 136.571 262.588 136.77C262.143 136.969 261.627 137.068 261.039 137.068ZM276.489 132.977V118.432H278.683V131.088H285.274V132.977H276.489ZM291.84 133.183C290.865 133.183 290.024 133.006 289.319 132.651C288.618 132.295 288.078 131.813 287.7 131.202C287.321 130.586 287.131 129.89 287.131 129.114C287.131 128.522 287.254 127.996 287.501 127.537C287.747 127.073 288.09 126.644 288.531 126.251C288.971 125.858 289.48 125.463 290.058 125.065L292.401 123.411C292.799 123.15 293.109 122.875 293.332 122.587C293.554 122.293 293.665 121.931 293.665 121.5C293.665 121.159 293.519 120.832 293.225 120.52C292.932 120.207 292.539 120.051 292.046 120.051C291.705 120.051 291.405 120.134 291.144 120.3C290.888 120.465 290.687 120.679 290.54 120.939C290.398 121.195 290.327 121.464 290.327 121.749C290.327 122.08 290.417 122.414 290.597 122.75C290.782 123.086 291.019 123.434 291.308 123.794C291.596 124.149 291.899 124.518 292.217 124.902L298.971 132.977H296.57L290.981 126.408C290.512 125.854 290.076 125.333 289.674 124.845C289.272 124.353 288.945 123.856 288.694 123.354C288.448 122.847 288.325 122.3 288.325 121.713C288.325 121.045 288.476 120.454 288.779 119.938C289.087 119.417 289.515 119.009 290.065 118.716C290.614 118.422 291.258 118.276 291.996 118.276C292.745 118.276 293.386 118.422 293.921 118.716C294.461 119.005 294.875 119.391 295.164 119.874C295.458 120.352 295.604 120.875 295.604 121.443C295.604 122.134 295.432 122.745 295.086 123.276C294.745 123.801 294.274 124.284 293.673 124.724L290.754 126.876C290.185 127.293 289.79 127.705 289.567 128.112C289.35 128.515 289.241 128.83 289.241 129.057C289.241 129.473 289.347 129.859 289.56 130.214C289.778 130.57 290.081 130.854 290.469 131.067C290.862 131.28 291.322 131.386 291.847 131.386C292.387 131.386 292.913 131.27 293.424 131.038C293.94 130.802 294.406 130.463 294.823 130.023C295.245 129.582 295.578 129.054 295.825 128.439C296.071 127.823 296.194 127.134 296.194 126.372H298.112C298.112 127.31 298.005 128.103 297.792 128.751C297.579 129.395 297.321 129.921 297.018 130.328C296.719 130.731 296.438 131.045 296.173 131.273C296.087 131.348 296.007 131.424 295.931 131.5C295.855 131.576 295.775 131.652 295.69 131.727C295.197 132.224 294.601 132.591 293.9 132.828C293.204 133.065 292.517 133.183 291.84 133.183ZM298.955 120.321V118.432H310.212V120.321H305.674V132.977H303.486V120.321H298.955Z" fill="black"/>
<path d="M42.8525 74.0076L31.8496 85.6189L31.4688 93.1609C33.7737 94.0338 35.4131 96.261 35.4131 98.8718C35.413 102.244 32.6786 104.977 29.3066 104.977C25.9348 104.977 23.2013 102.244 23.2012 98.8718C23.2012 96.1404 24.995 93.8277 27.4688 93.0476L27.9297 83.9402L39.9482 71.2556L42.8525 74.0076ZM51 93.1384C53.3346 93.9961 55 96.2397 55 98.8718C54.9999 102.244 52.2664 104.977 48.8945 104.977C45.5225 104.977 42.7892 102.244 42.7891 98.8718C42.7891 96.1612 44.5555 93.8644 47 93.0671V84.2175H51V93.1384ZM74.5264 83.9402L74.9863 93.0476C77.4608 93.8272 79.2559 96.1398 79.2559 98.8718C79.2558 102.244 76.5214 104.977 73.1494 104.977C69.7776 104.977 67.044 102.244 67.0439 98.8718C67.0439 96.2613 68.6827 94.034 70.9873 93.1609L70.6074 85.6189L59.6045 74.0076L62.5088 71.2556L74.5264 83.9402ZM33.7217 64.0964L21.0371 76.115L11.9287 76.5749C11.1488 79.049 8.83715 80.8435 6.10547 80.8435C2.73364 80.8434 0.000230885 78.1098 0 74.738C0 71.366 2.73349 68.6317 6.10547 68.6316C8.71581 68.6316 10.9422 70.2706 11.8154 72.5749L19.3584 72.1951L30.9697 61.1921L33.7217 64.0964ZM79.7568 72.1951L87.2988 72.5749C88.172 70.2704 90.3993 68.6316 93.0098 68.6316C96.3818 68.6316 99.1152 71.366 99.1152 74.738C99.115 78.1099 96.3817 80.8435 93.0098 80.8435C90.278 80.8435 87.9653 79.0491 87.1855 76.5749L78.0781 76.115L65.3936 64.0964L68.1455 61.1921L79.7568 72.1951ZM49.2637 37.9773C57.6937 37.9773 64.5281 44.811 64.5283 53.241C64.5283 61.6711 57.6938 68.5056 49.2637 68.5056C40.8337 68.5054 34 61.6709 34 53.241C34.0002 44.8112 40.8339 37.9775 49.2637 37.9773ZM6.10547 46.9773C8.73756 46.9773 10.9812 48.6427 11.8389 50.9773H20.7598V54.9773H11.9102C11.1129 57.4218 8.81609 59.1882 6.10547 59.1882C2.73349 59.1881 0 56.4547 0 53.0827C9.89536e-05 49.7108 2.73356 46.9774 6.10547 46.9773ZM93.0098 46.9773C96.3818 46.9773 99.1151 49.7108 99.1152 53.0827C99.1152 56.4548 96.3818 59.1882 93.0098 59.1882C90.2991 59.1882 88.0023 57.4218 87.2051 54.9773H78.3564V50.9773H87.2764C88.134 48.6426 90.3777 46.9773 93.0098 46.9773ZM6.10547 24.7898C8.83706 24.7898 11.1488 26.5835 11.9287 29.0574L21.0371 29.5183L33.7217 41.5359L30.9697 44.4402L19.3584 33.4372L11.8154 33.0564C10.9425 35.3612 8.71622 37.0007 6.10547 37.0007C2.7336 37.0006 0.000164923 34.2671 0 30.8952C0 27.5233 2.73349 24.7899 6.10547 24.7898ZM93.0098 24.7898C96.3818 24.7898 99.1152 27.5232 99.1152 30.8952C99.1151 34.2672 96.3817 37.0007 93.0098 37.0007C90.3989 37.0007 88.1717 35.3614 87.2988 33.0564L79.7568 33.4372L68.1455 44.4402L65.3936 41.5359L78.0781 29.5183L87.1855 29.0574C87.9654 26.5833 90.2781 24.7898 93.0098 24.7898ZM26.8652 0.97728C30.2371 0.977445 32.9706 3.71088 32.9707 7.08275C32.9707 9.6935 31.3312 11.9197 29.0264 12.7927L29.4072 20.3357L40.4102 31.947L37.5059 34.699L25.4873 22.0144L25.0264 12.906C22.5529 12.1258 20.7598 9.81402 20.7598 7.08275C20.7599 3.71077 23.4932 0.97728 26.8652 0.97728ZM70.707 0.97728C74.079 0.97728 76.8134 3.71077 76.8135 7.08275C76.8135 9.81439 75.0189 12.1261 72.5449 12.906L72.085 22.0144L60.0664 34.699L57.1621 31.947L68.165 20.3357L68.5449 12.7927C66.2406 11.9195 64.6016 9.69313 64.6016 7.08275C64.6017 3.71092 67.3352 0.977511 70.707 0.97728ZM48.8945 0.97728C52.2664 0.977379 54.9999 3.71084 55 7.08275C55 9.71472 53.3345 11.9574 51 12.8152V21.737H47V12.8865C44.5557 12.0891 42.7891 9.79326 42.7891 7.08275C42.7892 3.71077 45.5225 0.97728 48.8945 0.97728Z" fill="black"/>
<line x1="131" y1="0.97728" x2="131" y2="104.977" stroke="black" stroke-width="2"/>
<path d="M597.773 2.59092V1.34092H606.5V2.59092H602.841V12.9773H601.432V2.59092H597.773ZM608.675 1.34092H610.357L614.311 11H614.447L618.402 1.34092H620.084V12.9773H618.766V4.13637H618.652L615.016 12.9773H613.743L610.107 4.13637H609.993V12.9773H608.675V1.34092Z" fill="black"/>
</svg>
