<svg width="622" height="138" viewBox="0 0 622 138" fill="none" xmlns="http://www.w3.org/2000/svg">
<path d="M166.46 100.977H159.397V79.1591H166.684C168.822 79.1591 170.658 79.5959 172.192 80.4695C173.726 81.3359 174.901 82.5824 175.718 84.2088C176.542 85.8281 176.954 87.7706 176.954 90.0362C176.954 92.3089 176.538 94.2621 175.707 95.8956C174.884 97.5291 173.69 98.7862 172.128 99.6669C170.565 100.54 168.676 100.977 166.46 100.977ZM162.689 98.1008H166.279C167.941 98.1008 169.322 97.7883 170.423 97.1633C171.524 96.5312 172.348 95.6186 172.895 94.4254C173.442 93.2251 173.715 91.7621 173.715 90.0362C173.715 88.3246 173.442 86.8722 172.895 85.679C172.355 84.4858 171.549 83.5802 170.477 82.9623C169.404 82.3445 168.072 82.0355 166.482 82.0355H162.689V98.1008ZM187.684 101.308C186.15 101.308 184.812 100.956 183.668 100.253C182.525 99.5497 181.637 98.566 181.005 97.3018C180.373 96.0376 180.057 94.5604 180.057 92.87C180.057 91.1726 180.373 89.6882 181.005 88.4169C181.637 87.1456 182.525 86.1584 183.668 85.4552C184.812 84.7521 186.15 84.4006 187.684 84.4006C189.219 84.4006 190.557 84.7521 191.701 85.4552C192.844 86.1584 193.732 87.1456 194.364 88.4169C194.996 89.6882 195.312 91.1726 195.312 92.87C195.312 94.5604 194.996 96.0376 194.364 97.3018C193.732 98.566 192.844 99.5497 191.701 100.253C190.557 100.956 189.219 101.308 187.684 101.308ZM187.695 98.6335C188.689 98.6335 189.513 98.3707 190.167 97.8452C190.82 97.3196 191.303 96.62 191.616 95.7464C191.935 94.8729 192.095 93.9105 192.095 92.8594C192.095 91.8153 191.935 90.8565 191.616 89.9829C191.303 89.1023 190.82 88.3956 190.167 87.8629C189.513 87.3302 188.689 87.0639 187.695 87.0639C186.694 87.0639 185.863 87.3302 185.202 87.8629C184.549 88.3956 184.062 89.1023 183.743 89.9829C183.43 90.8565 183.274 91.8153 183.274 92.8594C183.274 93.9105 183.43 94.8729 183.743 95.7464C184.062 96.62 184.549 97.3196 185.202 97.8452C185.863 98.3707 186.694 98.6335 187.695 98.6335ZM205.761 101.308C204.177 101.308 202.813 100.949 201.67 100.232C200.533 99.5071 199.66 98.5092 199.049 97.2379C198.438 95.9666 198.133 94.5106 198.133 92.87C198.133 91.2081 198.445 89.7415 199.07 88.4702C199.695 87.1918 200.576 86.1939 201.712 85.4766C202.849 84.7592 204.188 84.4006 205.729 84.4006C206.972 84.4006 208.08 84.6314 209.053 85.093C210.026 85.5476 210.81 86.1868 211.407 87.0106C212.011 87.8345 212.369 88.7969 212.483 89.8977H209.383C209.212 89.1307 208.822 88.4702 208.211 87.9162C207.607 87.3622 206.798 87.0852 205.782 87.0852C204.894 87.0852 204.116 87.3196 203.449 87.7883C202.788 88.25 202.273 88.9105 201.904 89.7699C201.535 90.6222 201.35 91.6307 201.35 92.7954C201.35 93.9886 201.531 95.0185 201.893 95.8849C202.256 96.7514 202.767 97.4226 203.428 97.8984C204.095 98.3743 204.88 98.6122 205.782 98.6122C206.386 98.6122 206.933 98.5021 207.423 98.282C207.92 98.0547 208.335 97.7315 208.669 97.3125C209.01 96.8935 209.248 96.3892 209.383 95.7997H212.483C212.369 96.8579 212.025 97.8025 211.45 98.6335C210.874 99.4645 210.104 100.118 209.138 100.594C208.179 101.07 207.053 101.308 205.761 101.308ZM228.045 84.8906C227.931 83.8821 227.463 83.1008 226.639 82.5469C225.815 81.9858 224.778 81.7052 223.528 81.7052C222.633 81.7052 221.859 81.8473 221.205 82.1314C220.552 82.4084 220.044 82.7919 219.682 83.282C219.327 83.7649 219.149 84.3153 219.149 84.9332C219.149 85.4517 219.27 85.8991 219.512 86.2756C219.76 86.652 220.083 86.968 220.481 87.2237C220.886 87.4723 221.319 87.6818 221.781 87.8523C222.242 88.0156 222.686 88.1506 223.112 88.2571L225.243 88.8111C225.939 88.9815 226.653 89.2123 227.384 89.5035C228.116 89.7947 228.794 90.1783 229.419 90.6541C230.044 91.13 230.548 91.7195 230.932 92.4226C231.323 93.1257 231.518 93.9673 231.518 94.9474C231.518 96.1832 231.198 97.2805 230.559 98.2393C229.927 99.1981 229.007 99.9545 227.8 100.509C226.6 101.062 225.147 101.339 223.443 101.339C221.809 101.339 220.396 101.08 219.203 100.562C218.009 100.043 217.075 99.3082 216.401 98.3565C215.726 97.3977 215.353 96.2614 215.282 94.9474H218.585C218.649 95.7358 218.904 96.3927 219.352 96.9183C219.806 97.4368 220.385 97.8239 221.088 98.0795C221.798 98.3281 222.576 98.4524 223.421 98.4524C224.352 98.4524 225.179 98.3068 225.904 98.0156C226.635 97.7173 227.21 97.3054 227.629 96.7798C228.048 96.2472 228.258 95.6257 228.258 94.9155C228.258 94.2692 228.073 93.74 227.704 93.3281C227.342 92.9162 226.848 92.5753 226.223 92.3054C225.605 92.0355 224.906 91.7976 224.124 91.5916L221.546 90.8885C219.799 90.4126 218.414 89.7131 217.392 88.7898C216.376 87.8665 215.868 86.6449 215.868 85.125C215.868 83.8679 216.209 82.7706 216.891 81.8331C217.573 80.8956 218.496 80.1676 219.661 79.6491C220.825 79.1236 222.139 78.8608 223.602 78.8608C225.08 78.8608 226.383 79.12 227.512 79.6385C228.649 80.157 229.544 80.8707 230.197 81.7798C230.85 82.6818 231.191 83.7187 231.22 84.8906H228.045ZM242.249 101.308C240.636 101.308 239.248 100.963 238.083 100.274C236.925 99.5781 236.031 98.6016 235.398 97.3445C234.773 96.0802 234.461 94.5994 234.461 92.902C234.461 91.2258 234.773 89.7486 235.398 88.4702C236.031 87.1918 236.911 86.1939 238.04 85.4766C239.177 84.7592 240.505 84.4006 242.025 84.4006C242.948 84.4006 243.843 84.5533 244.71 84.8587C245.576 85.1641 246.354 85.6435 247.043 86.2969C247.732 86.9503 248.275 87.799 248.673 88.843C249.07 89.88 249.269 91.1406 249.269 92.625V93.7543H236.261V91.3679H246.148C246.148 90.5298 245.977 89.7876 245.636 89.1413C245.295 88.4879 244.816 87.973 244.198 87.5966C243.587 87.2202 242.87 87.032 242.046 87.032C241.151 87.032 240.37 87.2521 239.702 87.6925C239.042 88.1257 238.531 88.6939 238.168 89.397C237.813 90.093 237.636 90.8494 237.636 91.6662V93.5305C237.636 94.6243 237.827 95.5547 238.211 96.3217C238.602 97.0888 239.145 97.6747 239.841 98.0795C240.537 98.4773 241.35 98.6761 242.281 98.6761C242.884 98.6761 243.435 98.5909 243.932 98.4204C244.429 98.2429 244.859 97.9801 245.221 97.6321C245.583 97.2841 245.86 96.8544 246.052 96.343L249.067 96.8864C248.825 97.7741 248.392 98.5518 247.767 99.2195C247.149 99.88 246.371 100.395 245.434 100.764C244.504 101.126 243.442 101.308 242.249 101.308ZM255.989 91.2614V100.977H252.803V84.6136H255.861V87.277H256.063C256.44 86.4105 257.029 85.7145 257.832 85.1889C258.642 84.6633 259.661 84.4006 260.889 84.4006C262.004 84.4006 262.981 84.6349 263.819 85.1037C264.657 85.5653 265.307 86.2543 265.769 87.1704C266.23 88.0866 266.461 89.2195 266.461 90.5689V100.977H263.276V90.9524C263.276 89.7663 262.967 88.8395 262.349 88.1719C261.731 87.4972 260.882 87.1598 259.803 87.1598C259.064 87.1598 258.407 87.3196 257.832 87.6392C257.264 87.9588 256.813 88.4275 256.479 89.0454C256.152 89.6562 255.989 90.3949 255.989 91.2614ZM282.995 88.6087L280.108 89.12C279.987 88.7507 279.796 88.3991 279.533 88.0653C279.277 87.7315 278.929 87.4581 278.489 87.245C278.048 87.032 277.498 86.9254 276.838 86.9254C275.936 86.9254 275.183 87.1278 274.579 87.5327C273.975 87.9304 273.673 88.4453 273.673 89.0774C273.673 89.6243 273.876 90.0646 274.281 90.3984C274.686 90.7322 275.339 91.0057 276.241 91.2187L278.84 91.8153C280.346 92.1633 281.468 92.6996 282.207 93.424C282.945 94.1484 283.315 95.0895 283.315 96.2472C283.315 97.2273 283.031 98.1008 282.463 98.8679C281.901 99.6278 281.117 100.224 280.108 100.658C279.107 101.091 277.945 101.308 276.624 101.308C274.792 101.308 273.297 100.917 272.139 100.136C270.982 99.3473 270.271 98.2287 270.009 96.7798L273.088 96.3111C273.279 97.1136 273.673 97.7209 274.27 98.1328C274.867 98.5376 275.644 98.74 276.603 98.74C277.647 98.74 278.482 98.5234 279.107 98.0902C279.732 97.6498 280.044 97.1136 280.044 96.4815C280.044 95.9702 279.852 95.5405 279.469 95.1925C279.093 94.8445 278.514 94.5817 277.732 94.4041L274.963 93.7969C273.436 93.4489 272.306 92.8949 271.575 92.1349C270.85 91.375 270.488 90.4126 270.488 89.2479C270.488 88.282 270.758 87.4368 271.298 86.7123C271.838 85.9879 272.583 85.4233 273.535 85.0185C274.487 84.6065 275.577 84.4006 276.806 84.4006C278.574 84.4006 279.966 84.7841 280.982 85.5511C281.997 86.3111 282.669 87.3302 282.995 88.6087ZM293.87 101.308C292.257 101.308 290.869 100.963 289.704 100.274C288.547 99.5781 287.652 98.6016 287.02 97.3445C286.395 96.0802 286.082 94.5994 286.082 92.902C286.082 91.2258 286.395 89.7486 287.02 88.4702C287.652 87.1918 288.532 86.1939 289.662 85.4766C290.798 84.7592 292.126 84.4006 293.646 84.4006C294.569 84.4006 295.464 84.5533 296.331 84.8587C297.197 85.1641 297.975 85.6435 298.664 86.2969C299.353 86.9503 299.896 87.799 300.294 88.843C300.691 89.88 300.89 91.1406 300.89 92.625V93.7543H287.882V91.3679H297.769C297.769 90.5298 297.598 89.7876 297.257 89.1413C296.917 88.4879 296.437 87.973 295.819 87.5966C295.208 87.2202 294.491 87.032 293.667 87.032C292.772 87.032 291.991 87.2521 291.324 87.6925C290.663 88.1257 290.152 88.6939 289.789 89.397C289.434 90.093 289.257 90.8494 289.257 91.6662V93.5305C289.257 94.6243 289.449 95.5547 289.832 96.3217C290.223 97.0888 290.766 97.6747 291.462 98.0795C292.158 98.4773 292.971 98.6761 293.902 98.6761C294.505 98.6761 295.056 98.5909 295.553 98.4204C296.05 98.2429 296.48 97.9801 296.842 97.6321C297.204 97.2841 297.481 96.8544 297.673 96.343L300.688 96.8864C300.446 97.7741 300.013 98.5518 299.388 99.2195C298.77 99.88 297.993 100.395 297.055 100.764C296.125 101.126 295.063 101.308 293.87 101.308Z" fill="#5E5C5C"/>
<path d="M210.182 0.795444V58.9773H203.364L171.659 13.2954H171.091V58.9773H164.045V0.795444H170.864L202.682 46.5909H203.25V0.795444H210.182ZM241.666 59.8864C237.462 59.8864 233.835 58.9583 230.786 57.1023C227.755 55.2273 225.416 52.6136 223.768 49.2614C222.14 45.8901 221.325 41.9697 221.325 37.5C221.325 33.0303 222.14 29.0909 223.768 25.6818C225.416 22.2538 227.708 19.5833 230.643 17.6704C233.598 15.7386 237.045 14.7727 240.984 14.7727C243.257 14.7727 245.501 15.1515 247.717 15.9091C249.933 16.6667 251.95 17.8977 253.768 19.6023C255.587 21.2879 257.036 23.5227 258.115 26.3068C259.195 29.0909 259.734 32.5189 259.734 36.5909V39.4318H226.098V33.6364H252.916C252.916 31.1742 252.424 28.9773 251.439 27.0454C250.473 25.1136 249.09 23.589 247.291 22.4716C245.511 21.3542 243.409 20.7954 240.984 20.7954C238.314 20.7954 236.003 21.4583 234.053 22.7841C232.121 24.0909 230.634 25.7954 229.592 27.8977C228.551 30 228.03 32.2538 228.03 34.6591V38.5227C228.03 41.8182 228.598 44.6117 229.734 46.9034C230.89 49.1761 232.49 50.9091 234.536 52.1023C236.581 53.2765 238.958 53.8636 241.666 53.8636C243.428 53.8636 245.018 53.6174 246.439 53.125C247.878 52.6136 249.119 51.8561 250.161 50.8523C251.202 49.8295 252.007 48.5606 252.575 47.0454L259.053 48.8636C258.371 51.0606 257.225 52.9924 255.615 54.6591C254.005 56.3068 252.017 57.5947 249.649 58.5227C247.282 59.4318 244.621 59.8864 241.666 59.8864ZM297.433 41.1364V15.3409H304.138V58.9773H297.433V51.5909H296.979C295.956 53.8068 294.365 55.6913 292.206 57.2443C290.047 58.7784 287.32 59.5454 284.024 59.5454C281.297 59.5454 278.873 58.9489 276.751 57.7557C274.63 56.5436 272.964 54.7254 271.751 52.3011C270.539 49.8579 269.933 46.7803 269.933 43.0682V15.3409H276.638V42.6136C276.638 45.7954 277.528 48.3333 279.308 50.2273C281.107 52.1212 283.399 53.0682 286.183 53.0682C287.85 53.0682 289.545 52.642 291.268 51.7898C293.011 50.9375 294.469 49.6307 295.643 47.8693C296.837 46.1079 297.433 43.8636 297.433 41.1364ZM316.418 58.9773V15.3409H322.895V21.9318H323.349C324.145 19.7727 325.584 18.0208 327.668 16.6761C329.751 15.3314 332.099 14.6591 334.713 14.6591C335.205 14.6591 335.821 14.6685 336.56 14.6875C337.298 14.7064 337.857 14.7348 338.236 14.7727V21.5909C338.009 21.5341 337.488 21.4489 336.673 21.3352C335.878 21.2026 335.035 21.1364 334.145 21.1364C332.024 21.1364 330.13 21.5814 328.463 22.4716C326.815 23.3428 325.509 24.5549 324.543 26.1079C323.596 27.642 323.122 29.3939 323.122 31.3636V58.9773H316.418ZM359.024 60C356.259 60 353.75 59.4792 351.496 58.4375C349.242 57.3769 347.452 55.8523 346.126 53.8636C344.801 51.8561 344.138 49.4318 344.138 46.5909C344.138 44.0909 344.63 42.0644 345.615 40.5114C346.6 38.9394 347.916 37.7083 349.564 36.8182C351.212 35.928 353.03 35.2651 355.018 34.8295C357.026 34.375 359.043 34.0151 361.07 33.75C363.721 33.4091 365.871 33.1534 367.518 32.9829C369.185 32.7936 370.397 32.4811 371.155 32.0454C371.931 31.6098 372.32 30.8523 372.32 29.7727V29.5454C372.32 26.7424 371.553 24.5644 370.018 23.0114C368.503 21.4583 366.202 20.6818 363.115 20.6818C359.914 20.6818 357.405 21.3826 355.587 22.7841C353.768 24.1856 352.49 25.6818 351.751 27.2727L345.388 25C346.524 22.3485 348.039 20.2841 349.933 18.8068C351.846 17.3106 353.929 16.2689 356.183 15.6818C358.456 15.0757 360.691 14.7727 362.888 14.7727C364.289 14.7727 365.899 14.9432 367.717 15.2841C369.554 15.606 371.325 16.2784 373.03 17.3011C374.753 18.3239 376.183 19.8674 377.32 21.9318C378.456 23.9962 379.024 26.7614 379.024 30.2273V58.9773H372.32V53.0682H371.979C371.524 54.0151 370.767 55.0284 369.706 56.1079C368.645 57.1875 367.234 58.1061 365.473 58.8636C363.712 59.6212 361.562 60 359.024 60ZM360.047 53.9773C362.698 53.9773 364.933 53.4564 366.751 52.4148C368.589 51.3731 369.971 50.0284 370.899 48.3807C371.846 46.7329 372.32 45 372.32 43.1818V37.0454C372.036 37.3864 371.411 37.6989 370.445 37.9829C369.498 38.2481 368.399 38.4848 367.149 38.6932C365.918 38.8826 364.715 39.053 363.541 39.2045C362.386 39.3371 361.448 39.4507 360.729 39.5454C358.986 39.7727 357.357 40.142 355.842 40.6534C354.346 41.1458 353.134 41.8939 352.206 42.8977C351.297 43.8826 350.842 45.2273 350.842 46.9318C350.842 49.2614 351.704 51.0227 353.428 52.2159C355.17 53.3901 357.376 53.9773 360.047 53.9773ZM397.966 0.795444V58.9773H391.261V0.795444H397.966ZM448.825 19.375C448.352 17.8409 447.698 16.4678 446.865 15.2557C446.051 14.0246 445.066 12.9735 443.911 12.1023C442.774 11.2311 441.467 10.5776 439.99 10.142C438.513 9.68749 436.903 9.46022 435.161 9.46022C432.036 9.46022 429.251 10.2462 426.808 11.8182C424.365 13.3901 422.443 15.7007 421.041 18.75C419.659 21.7803 418.967 25.4735 418.967 29.8295C418.967 34.2235 419.659 37.9451 421.041 40.9943C422.424 44.0436 424.346 46.3636 426.808 47.9545C429.27 49.5265 432.13 50.3125 435.388 50.3125C438.342 50.3125 440.899 49.7443 443.058 48.6079C445.236 47.4716 446.912 45.8617 448.087 43.7784C449.261 41.6761 449.848 39.214 449.848 36.392L452.234 36.7614H436.439V28.5227H460.047V35.5114C460.047 40.4924 458.986 44.8011 456.865 48.4375C454.744 52.0739 451.827 54.8769 448.115 56.8466C444.403 58.7973 440.142 59.7727 435.331 59.7727C429.971 59.7727 425.265 58.5701 421.212 56.1648C417.178 53.7405 414.024 50.303 411.751 45.8523C409.498 41.3826 408.371 36.0795 408.371 29.9432C408.371 25.2462 409.034 21.0511 410.359 17.3579C411.704 13.6648 413.579 10.5303 415.984 7.95453C418.39 5.35984 421.212 3.39014 424.45 2.04544C427.689 0.681808 431.212 -1.04904e-05 435.018 -1.04904e-05C438.238 -1.04904e-05 441.24 0.473475 444.024 1.42044C446.808 2.34847 449.28 3.67423 451.439 5.39772C453.617 7.1212 455.407 9.16666 456.808 11.5341C458.21 13.9015 459.128 16.5151 459.564 19.375H448.825ZM470.239 58.9773V0.795444H492.057C496.527 0.795444 500.277 1.57196 503.307 3.12499C506.356 4.67802 508.657 6.85605 510.21 9.65908C511.782 12.4432 512.568 15.6913 512.568 19.4034C512.568 23.1345 511.773 26.3731 510.182 29.1193C508.61 31.8466 506.29 33.9583 503.222 35.4545C500.153 36.9318 496.384 37.6704 491.915 37.6704H476.375V28.9204H490.494C493.108 28.9204 495.248 28.5606 496.915 27.8409C498.581 27.1023 499.813 26.0322 500.608 24.6307C501.422 23.2102 501.83 21.4678 501.83 19.4034C501.83 17.339 501.422 15.5776 500.608 14.1193C499.794 12.642 498.553 11.5246 496.886 10.767C495.22 9.99052 493.07 9.60226 490.438 9.60226H480.778V58.9773H470.239ZM500.295 32.6136L514.699 58.9773H502.938L488.79 32.6136H500.295ZM532.81 0.795444V58.9773H522.27V0.795444H532.81ZM563.939 58.9773H544.223V0.795444H564.337C570.113 0.795444 575.075 1.96022 579.223 4.28976C583.39 6.60037 586.59 9.92423 588.825 14.2614C591.06 18.5985 592.178 23.7879 592.178 29.8295C592.178 35.8901 591.051 41.0985 588.797 45.4545C586.562 49.8106 583.333 53.1534 579.109 55.4829C574.905 57.8125 569.848 58.9773 563.939 58.9773ZM554.763 49.8579H563.428C567.481 49.8579 570.861 49.1193 573.57 47.642C576.278 46.1458 578.314 43.9204 579.678 40.9659C581.041 37.9924 581.723 34.2803 581.723 29.8295C581.723 25.3788 581.041 21.6856 579.678 18.75C578.314 15.7954 576.297 13.589 573.626 12.1307C570.975 10.6534 567.679 9.91476 563.74 9.91476H554.763V49.8579Z" fill="black"/>
<path d="M158.598 132.977V118.432H163.783C164.914 118.432 165.852 118.638 166.595 119.05C167.339 119.462 167.895 120.025 168.264 120.74C168.634 121.45 168.818 122.25 168.818 123.141C168.818 124.036 168.631 124.84 168.257 125.555C167.888 126.266 167.329 126.829 166.581 127.246C165.838 127.658 164.902 127.864 163.776 127.864H160.21V126.003H163.577C164.292 126.003 164.872 125.88 165.317 125.634C165.762 125.383 166.089 125.042 166.297 124.611C166.505 124.18 166.609 123.69 166.609 123.141C166.609 122.591 166.505 122.104 166.297 121.678C166.089 121.251 165.759 120.918 165.31 120.676C164.865 120.435 164.277 120.314 163.548 120.314H160.793V132.977H158.598ZM175.679 133.197C174.656 133.197 173.764 132.963 173.001 132.494C172.239 132.026 171.647 131.37 171.226 130.527C170.804 129.684 170.594 128.699 170.594 127.572C170.594 126.441 170.804 125.451 171.226 124.604C171.647 123.756 172.239 123.098 173.001 122.629C173.764 122.161 174.656 121.926 175.679 121.926C176.702 121.926 177.594 122.161 178.357 122.629C179.119 123.098 179.711 123.756 180.132 124.604C180.554 125.451 180.764 126.441 180.764 127.572C180.764 128.699 180.554 129.684 180.132 130.527C179.711 131.37 179.119 132.026 178.357 132.494C177.594 132.963 176.702 133.197 175.679 133.197ZM175.686 131.415C176.349 131.415 176.898 131.24 177.334 130.889C177.769 130.539 178.091 130.072 178.3 129.49C178.513 128.908 178.619 128.266 178.619 127.565C178.619 126.869 178.513 126.23 178.3 125.648C178.091 125.061 177.769 124.589 177.334 124.234C176.898 123.879 176.349 123.702 175.686 123.702C175.018 123.702 174.464 123.879 174.024 124.234C173.589 124.589 173.264 125.061 173.051 125.648C172.843 126.23 172.739 126.869 172.739 127.565C172.739 128.266 172.843 128.908 173.051 129.49C173.264 130.072 173.589 130.539 174.024 130.889C174.464 131.24 175.018 131.415 175.686 131.415ZM185.168 132.977L181.957 122.068H184.152L186.29 130.08H186.396L188.541 122.068H190.736L192.866 130.044H192.973L195.097 122.068H197.291L194.088 132.977H191.922L189.706 125.101H189.543L187.327 132.977H185.168ZM203.676 133.197C202.601 133.197 201.676 132.968 200.899 132.509C200.127 132.044 199.531 131.393 199.109 130.555C198.693 129.713 198.484 128.725 198.484 127.594C198.484 126.476 198.693 125.491 199.109 124.639C199.531 123.787 200.118 123.122 200.871 122.643C201.628 122.165 202.514 121.926 203.527 121.926C204.143 121.926 204.739 122.028 205.317 122.232C205.894 122.435 206.413 122.755 206.872 123.19C207.331 123.626 207.694 124.192 207.959 124.888C208.224 125.579 208.357 126.419 208.357 127.409V128.162H199.685V126.571H206.276C206.276 126.012 206.162 125.518 205.935 125.087C205.707 124.651 205.388 124.308 204.976 124.057C204.569 123.806 204.09 123.68 203.541 123.68C202.945 123.68 202.424 123.827 201.979 124.121C201.538 124.41 201.197 124.788 200.956 125.257C200.719 125.721 200.601 126.225 200.601 126.77V128.013C200.601 128.742 200.729 129.362 200.984 129.874C201.245 130.385 201.607 130.776 202.071 131.045C202.535 131.311 203.077 131.443 203.697 131.443C204.1 131.443 204.467 131.386 204.798 131.273C205.13 131.154 205.416 130.979 205.658 130.747C205.899 130.515 206.084 130.229 206.212 129.888L208.222 130.25C208.061 130.842 207.772 131.36 207.355 131.805C206.943 132.246 206.425 132.589 205.8 132.835C205.179 133.077 204.472 133.197 203.676 133.197ZM210.713 132.977V122.068H212.765V123.801H212.879C213.078 123.214 213.428 122.752 213.93 122.416C214.437 122.075 215.01 121.905 215.649 121.905C215.781 121.905 215.938 121.91 216.118 121.919C216.302 121.928 216.447 121.94 216.551 121.955V123.986C216.466 123.962 216.314 123.936 216.096 123.908C215.878 123.875 215.661 123.858 215.443 123.858C214.941 123.858 214.493 123.964 214.1 124.178C213.712 124.386 213.404 124.677 213.177 125.051C212.95 125.42 212.836 125.842 212.836 126.315V132.977H210.713ZM222.7 133.197C221.625 133.197 220.699 132.968 219.923 132.509C219.151 132.044 218.554 131.393 218.133 130.555C217.716 129.713 217.508 128.725 217.508 127.594C217.508 126.476 217.716 125.491 218.133 124.639C218.554 123.787 219.141 123.122 219.894 122.643C220.652 122.165 221.537 121.926 222.55 121.926C223.166 121.926 223.763 122.028 224.34 122.232C224.918 122.435 225.436 122.755 225.896 123.19C226.355 123.626 226.717 124.192 226.982 124.888C227.247 125.579 227.38 126.419 227.38 127.409V128.162H218.708V126.571H225.299C225.299 126.012 225.185 125.518 224.958 125.087C224.731 124.651 224.411 124.308 223.999 124.057C223.592 123.806 223.114 123.68 222.565 123.68C221.968 123.68 221.447 123.827 221.002 124.121C220.562 124.41 220.221 124.788 219.979 125.257C219.743 125.721 219.624 126.225 219.624 126.77V128.013C219.624 128.742 219.752 129.362 220.008 129.874C220.268 130.385 220.63 130.776 221.094 131.045C221.558 131.311 222.101 131.443 222.721 131.443C223.123 131.443 223.49 131.386 223.822 131.273C224.153 131.154 224.44 130.979 224.681 130.747C224.923 130.515 225.107 130.229 225.235 129.888L227.245 130.25C227.084 130.842 226.795 131.36 226.379 131.805C225.967 132.246 225.448 132.589 224.823 132.835C224.203 133.077 223.495 133.197 222.7 133.197ZM233.82 133.19C232.939 133.19 232.153 132.965 231.462 132.516C230.775 132.061 230.236 131.415 229.843 130.577C229.454 129.734 229.26 128.723 229.26 127.544C229.26 126.365 229.457 125.357 229.85 124.518C230.248 123.68 230.792 123.039 231.483 122.594C232.175 122.149 232.958 121.926 233.834 121.926C234.511 121.926 235.056 122.04 235.468 122.267C235.884 122.49 236.206 122.75 236.434 123.048C236.666 123.347 236.846 123.609 236.973 123.837H237.101V118.432H239.225V132.977H237.151V131.28H236.973C236.846 131.512 236.661 131.777 236.419 132.075C236.183 132.374 235.856 132.634 235.439 132.857C235.023 133.079 234.483 133.19 233.82 133.19ZM234.289 131.379C234.9 131.379 235.416 131.218 235.837 130.896C236.263 130.57 236.585 130.117 236.803 129.54C237.025 128.962 237.137 128.29 237.137 127.523C237.137 126.765 237.028 126.102 236.81 125.534C236.592 124.966 236.273 124.523 235.851 124.206C235.43 123.889 234.909 123.73 234.289 123.73C233.65 123.73 233.117 123.896 232.691 124.227C232.265 124.559 231.943 125.011 231.725 125.584C231.512 126.157 231.405 126.803 231.405 127.523C231.405 128.252 231.514 128.908 231.732 129.49C231.95 130.072 232.272 130.534 232.698 130.875C233.129 131.211 233.659 131.379 234.289 131.379ZM247.719 132.977V118.432H249.843V123.837H249.971C250.094 123.609 250.271 123.347 250.503 123.048C250.735 122.75 251.057 122.49 251.469 122.267C251.881 122.04 252.426 121.926 253.103 121.926C253.983 121.926 254.769 122.149 255.461 122.594C256.152 123.039 256.694 123.68 257.087 124.518C257.485 125.357 257.684 126.365 257.684 127.544C257.684 128.723 257.487 129.734 257.094 130.577C256.701 131.415 256.161 132.061 255.475 132.516C254.788 132.965 254.005 133.19 253.124 133.19C252.461 133.19 251.919 133.079 251.498 132.857C251.081 132.634 250.754 132.374 250.517 132.075C250.281 131.777 250.098 131.512 249.971 131.28H249.793V132.977H247.719ZM249.8 127.523C249.8 128.29 249.911 128.962 250.134 129.54C250.356 130.117 250.678 130.57 251.1 130.896C251.521 131.218 252.037 131.379 252.648 131.379C253.283 131.379 253.813 131.211 254.239 130.875C254.665 130.534 254.987 130.072 255.205 129.49C255.427 128.908 255.539 128.252 255.539 127.523C255.539 126.803 255.43 126.157 255.212 125.584C254.999 125.011 254.677 124.559 254.246 124.227C253.82 123.896 253.287 123.73 252.648 123.73C252.033 123.73 251.512 123.889 251.086 124.206C250.664 124.523 250.345 124.966 250.127 125.534C249.909 126.102 249.8 126.765 249.8 127.523ZM261.039 137.068C260.722 137.068 260.433 137.042 260.173 136.99C259.913 136.943 259.718 136.891 259.591 136.834L260.102 135.094C260.49 135.198 260.836 135.243 261.139 135.229C261.442 135.214 261.709 135.101 261.941 134.888C262.178 134.675 262.386 134.327 262.566 133.844L262.829 133.119L258.838 122.068H261.11L263.873 130.534H263.987L266.75 122.068H269.029L264.534 134.433C264.325 135.001 264.06 135.482 263.738 135.875C263.416 136.273 263.033 136.571 262.588 136.77C262.143 136.969 261.627 137.068 261.039 137.068ZM276.489 132.977V118.432H278.683V131.088H285.274V132.977H276.489ZM291.84 133.183C290.865 133.183 290.024 133.006 289.319 132.651C288.618 132.295 288.078 131.812 287.7 131.202C287.321 130.586 287.131 129.89 287.131 129.114C287.131 128.522 287.254 127.996 287.501 127.537C287.747 127.073 288.09 126.644 288.531 126.251C288.971 125.858 289.48 125.463 290.058 125.065L292.401 123.411C292.799 123.15 293.109 122.875 293.332 122.587C293.554 122.293 293.665 121.931 293.665 121.5C293.665 121.159 293.519 120.832 293.225 120.52C292.932 120.207 292.539 120.051 292.046 120.051C291.705 120.051 291.405 120.134 291.144 120.3C290.888 120.465 290.687 120.678 290.54 120.939C290.398 121.195 290.327 121.464 290.327 121.749C290.327 122.08 290.417 122.414 290.597 122.75C290.782 123.086 291.019 123.434 291.308 123.794C291.596 124.149 291.899 124.518 292.217 124.902L298.971 132.977H296.57L290.981 126.408C290.512 125.854 290.076 125.333 289.674 124.845C289.272 124.353 288.945 123.856 288.694 123.354C288.448 122.847 288.325 122.3 288.325 121.713C288.325 121.045 288.476 120.454 288.779 119.937C289.087 119.417 289.515 119.009 290.065 118.716C290.614 118.422 291.258 118.276 291.996 118.276C292.745 118.276 293.386 118.422 293.921 118.716C294.461 119.005 294.875 119.391 295.164 119.874C295.458 120.352 295.604 120.875 295.604 121.443C295.604 122.134 295.432 122.745 295.086 123.276C294.745 123.801 294.274 124.284 293.673 124.724L290.754 126.876C290.185 127.293 289.79 127.705 289.567 128.112C289.35 128.515 289.241 128.83 289.241 129.057C289.241 129.473 289.347 129.859 289.56 130.214C289.778 130.57 290.081 130.854 290.469 131.067C290.862 131.28 291.322 131.386 291.847 131.386C292.387 131.386 292.913 131.27 293.424 131.038C293.94 130.802 294.406 130.463 294.823 130.023C295.245 129.582 295.578 129.054 295.825 128.439C296.071 127.823 296.194 127.134 296.194 126.372H298.112C298.112 127.31 298.005 128.103 297.792 128.751C297.579 129.395 297.321 129.921 297.018 130.328C296.719 130.731 296.438 131.045 296.173 131.273C296.087 131.348 296.007 131.424 295.931 131.5C295.855 131.576 295.775 131.652 295.69 131.727C295.197 132.224 294.601 132.591 293.9 132.828C293.204 133.065 292.517 133.183 291.84 133.183ZM298.955 120.321V118.432H310.212V120.321H305.674V132.977H303.486V120.321H298.955Z" fill="black"/>
<path d="M42.8525 74.0075L31.8496 85.6189L31.4688 93.1609C33.7737 94.0338 35.4131 96.261 35.4131 98.8718C35.413 102.244 32.6786 104.977 29.3066 104.977C25.9348 104.977 23.2013 102.244 23.2012 98.8718C23.2012 96.1403 24.995 93.8276 27.4688 93.0476L27.9297 83.9402L39.9482 71.2556L42.8525 74.0075ZM51 93.1384C53.3346 93.9961 55 96.2397 55 98.8718C54.9999 102.244 52.2664 104.977 48.8945 104.977C45.5225 104.977 42.7892 102.244 42.7891 98.8718C42.7891 96.1612 44.5555 93.8644 47 93.0671V84.2175H51V93.1384ZM74.5264 83.9402L74.9863 93.0476C77.4608 93.8272 79.2559 96.1398 79.2559 98.8718C79.2558 102.244 76.5214 104.977 73.1494 104.977C69.7776 104.977 67.044 102.244 67.0439 98.8718C67.0439 96.2612 68.6827 94.034 70.9873 93.1609L70.6074 85.6189L59.6045 74.0075L62.5088 71.2556L74.5264 83.9402ZM33.7217 64.0964L21.0371 76.115L11.9287 76.5749C11.1488 79.0489 8.83715 80.8435 6.10547 80.8435C2.73364 80.8434 0.000230885 78.1098 0 74.738C0 71.366 2.73349 68.6317 6.10547 68.6316C8.71581 68.6316 10.9422 70.2706 11.8154 72.5749L19.3584 72.195L30.9697 61.1921L33.7217 64.0964ZM79.7568 72.195L87.2988 72.5749C88.172 70.2704 90.3993 68.6316 93.0098 68.6316C96.3818 68.6316 99.1152 71.3659 99.1152 74.738C99.115 78.1099 96.3817 80.8435 93.0098 80.8435C90.278 80.8434 87.9653 79.0491 87.1855 76.5749L78.0781 76.115L65.3936 64.0964L68.1455 61.1921L79.7568 72.195ZM49.2637 37.9773C57.6937 37.9773 64.5281 44.811 64.5283 53.2409C64.5283 61.6711 57.6938 68.5056 49.2637 68.5056C40.8337 68.5053 34 61.6709 34 53.2409C34.0002 44.8112 40.8339 37.9775 49.2637 37.9773ZM6.10547 46.9773C8.73756 46.9773 10.9812 48.6426 11.8389 50.9773H20.7598V54.9773H11.9102C11.1129 57.4217 8.81609 59.1882 6.10547 59.1882C2.73349 59.1881 0 56.4547 0 53.0827C9.89536e-05 49.7108 2.73356 46.9774 6.10547 46.9773ZM93.0098 46.9773C96.3818 46.9773 99.1151 49.7108 99.1152 53.0827C99.1152 56.4548 96.3818 59.1882 93.0098 59.1882C90.2991 59.1882 88.0023 57.4218 87.2051 54.9773H78.3564V50.9773H87.2764C88.134 48.6426 90.3777 46.9773 93.0098 46.9773ZM6.10547 24.7898C8.83706 24.7898 11.1488 26.5834 11.9287 29.0573L21.0371 29.5183L33.7217 41.5359L30.9697 44.4402L19.3584 33.4372L11.8154 33.0564C10.9425 35.3612 8.71622 37.0007 6.10547 37.0007C2.7336 37.0006 0.000164923 34.2671 0 30.8952C0 27.5232 2.73349 24.7899 6.10547 24.7898ZM93.0098 24.7898C96.3818 24.7898 99.1152 27.5232 99.1152 30.8952C99.1151 34.2672 96.3817 37.0007 93.0098 37.0007C90.3989 37.0007 88.1717 35.3614 87.2988 33.0564L79.7568 33.4372L68.1455 44.4402L65.3936 41.5359L78.0781 29.5183L87.1855 29.0573C87.9654 26.5833 90.2781 24.7898 93.0098 24.7898ZM26.8652 0.977264C30.2371 0.977429 32.9706 3.71086 32.9707 7.08273C32.9707 9.69348 31.3312 11.9197 29.0264 12.7927L29.4072 20.3357L40.4102 31.947L37.5059 34.6989L25.4873 22.0144L25.0264 12.906C22.5529 12.1258 20.7598 9.814 20.7598 7.08273C20.7599 3.71076 23.4932 0.977264 26.8652 0.977264ZM70.707 0.977264C74.079 0.977264 76.8134 3.71076 76.8135 7.08273C76.8135 9.81437 75.0189 12.1261 72.5449 12.906L72.085 22.0144L60.0664 34.6989L57.1621 31.947L68.165 20.3357L68.5449 12.7927C66.2406 11.9195 64.6016 9.69312 64.6016 7.08273C64.6017 3.7109 67.3352 0.977495 70.707 0.977264ZM48.8945 0.977264C52.2664 0.977363 54.9999 3.71082 55 7.08273C55 9.7147 53.3345 11.9574 51 12.8152V21.737H47V12.8864C44.5557 12.0891 42.7891 9.79324 42.7891 7.08273C42.7892 3.71076 45.5225 0.977264 48.8945 0.977264Z" fill="black"/>
<line x1="131" y1="0.977264" x2="131" y2="104.977" stroke="black" stroke-width="2"/>
<path d="M597.773 2.5909V1.3409H606.5V2.5909H602.841V12.9773H601.432V2.5909H597.773ZM608.675 1.3409H610.357L614.311 11H614.447L618.402 1.3409H620.084V12.9773H618.766V4.13636H618.652L615.016 12.9773H613.743L610.107 4.13636H609.993V12.9773H608.675V1.3409Z" fill="black"/>
</svg>
